<svg width="40" height="40" viewBox="0 0 40 40" fill="none" xmlns="http://www.w3.org/2000/svg">
<rect width="40" height="40" rx="20" fill="#855ABB"/>
<path d="M14.018 14.4H18.338V16.56H14.882L14.828 16.668L17.708 21.924C18.296 22.98 18.59 23.784 18.59 24.336C18.59 25.548 18.188 26.436 17.384 27H12.614V24.912H16.34L16.394 24.804L13.154 18.99C12.686 18.15 12.452 17.466 12.452 16.938C12.452 15.69 12.974 14.844 14.018 14.4ZM19.8445 27V14.4H24.9745C25.5625 14.616 26.0845 14.994 26.5405 15.534C26.9965 16.074 27.2245 16.728 27.2245 17.496C27.2245 18.852 26.7805 19.8 25.8925 20.34V20.412C26.9965 21.024 27.5485 21.984 27.5485 23.292C27.5485 24.792 26.7865 26.028 25.2625 27H19.8445ZM22.2925 19.602H24.0745C24.6025 19.278 24.8665 18.786 24.8665 18.126C24.8665 17.466 24.6205 16.944 24.1285 16.56H22.2925V19.602ZM22.2925 24.912H24.1465C24.3625 24.756 24.5545 24.51 24.7225 24.174C24.9025 23.838 24.9925 23.502 24.9925 23.166C24.9925 22.83 24.9205 22.524 24.7765 22.248C24.6325 21.972 24.4525 21.768 24.2365 21.636H22.2925V24.912Z" fill="white"/>
</svg>
