<svg width="35" height="35" viewBox="0 0 35 35" fill="none" xmlns="http://www.w3.org/2000/svg">
<path d="M14.1319 16.3289C14.1319 16.3289 17.4376 16.0836 17.4376 12.2071C17.4376 8.33039 14.7331 6.43848 11.3073 6.43848H5.00124H4.8164H0.0341797V28.1022H4.8164H5.00124H11.3073C11.3073 28.1022 18.1891 28.3196 18.1891 21.708C18.1891 21.708 18.4891 16.3289 14.1319 16.3289ZM10.4958 10.2889H11.3073C11.3073 10.2889 12.8396 10.2889 12.8396 12.5429C12.8396 14.7966 11.9384 15.1234 10.9162 15.1234H5.00124V10.2889H10.4958ZM10.9887 24.2518H5.00124V18.4624H11.3073C11.3073 18.4624 13.5911 18.4325 13.5911 21.4376C13.5911 23.9715 11.8853 24.2326 10.9887 24.2518ZM27.3671 11.9503C19.036 11.9503 19.0433 20.2741 19.0433 20.2741C19.0433 20.2741 18.4717 28.5552 27.3671 28.5552C27.3671 28.5552 34.7799 28.9787 34.7799 22.7945H30.9677C30.9677 22.7945 31.0948 25.1234 27.4943 25.1234C27.4943 25.1234 23.6815 25.3789 23.6815 21.3544H34.907C34.907 21.3544 36.1354 11.9503 27.3671 11.9503ZM23.6396 18.4624C23.6396 18.4624 24.105 15.1234 27.4518 15.1234C30.7979 15.1234 30.756 18.4624 30.756 18.4624H23.6396ZM31.6441 10.3824H22.7062V7.71468H31.6441V10.3824Z" fill="black"/>
</svg>
