<svg width="60" height="60" viewBox="0 0 60 60" fill="none" xmlns="http://www.w3.org/2000/svg">
<rect width="60" height="60" rx="30" fill="white"/>
<path d="M22.0239 22.2H27.7839V25.08H23.1759L23.1039 25.224L26.9439 32.232C27.7279 33.64 28.1199 34.712 28.1199 35.448C28.1199 37.064 27.5839 38.248 26.5119 39H20.1519V36.216H25.1199L25.1919 36.072L20.8719 28.32C20.2479 27.2 19.9359 26.288 19.9359 25.584C19.9359 23.92 20.6319 22.792 22.0239 22.2ZM29.7926 39V22.2H36.6326C37.4166 22.488 38.1126 22.992 38.7206 23.712C39.3286 24.432 39.6326 25.304 39.6326 26.328C39.6326 28.136 39.0406 29.4 37.8566 30.12V30.216C39.3286 31.032 40.0646 32.312 40.0646 34.056C40.0646 36.056 39.0486 37.704 37.0166 39H29.7926ZM33.0566 29.136H35.4326C36.1366 28.704 36.4886 28.048 36.4886 27.168C36.4886 26.288 36.1606 25.592 35.5046 25.08H33.0566V29.136ZM33.0566 36.216H35.5286C35.8166 36.008 36.0726 35.68 36.2966 35.232C36.5366 34.784 36.6566 34.336 36.6566 33.888C36.6566 33.44 36.5606 33.032 36.3686 32.664C36.1766 32.296 35.9366 32.024 35.6486 31.848H33.0566V36.216Z" fill="black"/>
<path d="M22.0239 22.2H27.7839V25.08H23.1759L23.1039 25.224L26.9439 32.232C27.7279 33.64 28.1199 34.712 28.1199 35.448C28.1199 37.064 27.5839 38.248 26.5119 39H20.1519V36.216H25.1199L25.1919 36.072L20.8719 28.32C20.2479 27.2 19.9359 26.288 19.9359 25.584C19.9359 23.92 20.6319 22.792 22.0239 22.2ZM29.7926 39V22.2H36.6326C37.4166 22.488 38.1126 22.992 38.7206 23.712C39.3286 24.432 39.6326 25.304 39.6326 26.328C39.6326 28.136 39.0406 29.4 37.8566 30.12V30.216C39.3286 31.032 40.0646 32.312 40.0646 34.056C40.0646 36.056 39.0486 37.704 37.0166 39H29.7926ZM33.0566 29.136H35.4326C36.1366 28.704 36.4886 28.048 36.4886 27.168C36.4886 26.288 36.1606 25.592 35.5046 25.08H33.0566V29.136ZM33.0566 36.216H35.5286C35.8166 36.008 36.0726 35.68 36.2966 35.232C36.5366 34.784 36.6566 34.336 36.6566 33.888C36.6566 33.44 36.5606 33.032 36.3686 32.664C36.1766 32.296 35.9366 32.024 35.6486 31.848H33.0566V36.216Z" fill="black" fill-opacity="0.2"/>
<path d="M22.0239 22.2H27.7839V25.08H23.1759L23.1039 25.224L26.9439 32.232C27.7279 33.64 28.1199 34.712 28.1199 35.448C28.1199 37.064 27.5839 38.248 26.5119 39H20.1519V36.216H25.1199L25.1919 36.072L20.8719 28.32C20.2479 27.2 19.9359 26.288 19.9359 25.584C19.9359 23.92 20.6319 22.792 22.0239 22.2ZM29.7926 39V22.2H36.6326C37.4166 22.488 38.1126 22.992 38.7206 23.712C39.3286 24.432 39.6326 25.304 39.6326 26.328C39.6326 28.136 39.0406 29.4 37.8566 30.12V30.216C39.3286 31.032 40.0646 32.312 40.0646 34.056C40.0646 36.056 39.0486 37.704 37.0166 39H29.7926ZM33.0566 29.136H35.4326C36.1366 28.704 36.4886 28.048 36.4886 27.168C36.4886 26.288 36.1606 25.592 35.5046 25.08H33.0566V29.136ZM33.0566 36.216H35.5286C35.8166 36.008 36.0726 35.68 36.2966 35.232C36.5366 34.784 36.6566 34.336 36.6566 33.888C36.6566 33.44 36.5606 33.032 36.3686 32.664C36.1766 32.296 35.9366 32.024 35.6486 31.848H33.0566V36.216Z" fill="black" fill-opacity="0.2"/>
<path d="M22.0239 22.2H27.7839V25.08H23.1759L23.1039 25.224L26.9439 32.232C27.7279 33.64 28.1199 34.712 28.1199 35.448C28.1199 37.064 27.5839 38.248 26.5119 39H20.1519V36.216H25.1199L25.1919 36.072L20.8719 28.32C20.2479 27.2 19.9359 26.288 19.9359 25.584C19.9359 23.92 20.6319 22.792 22.0239 22.2ZM29.7926 39V22.2H36.6326C37.4166 22.488 38.1126 22.992 38.7206 23.712C39.3286 24.432 39.6326 25.304 39.6326 26.328C39.6326 28.136 39.0406 29.4 37.8566 30.12V30.216C39.3286 31.032 40.0646 32.312 40.0646 34.056C40.0646 36.056 39.0486 37.704 37.0166 39H29.7926ZM33.0566 29.136H35.4326C36.1366 28.704 36.4886 28.048 36.4886 27.168C36.4886 26.288 36.1606 25.592 35.5046 25.08H33.0566V29.136ZM33.0566 36.216H35.5286C35.8166 36.008 36.0726 35.68 36.2966 35.232C36.5366 34.784 36.6566 34.336 36.6566 33.888C36.6566 33.44 36.5606 33.032 36.3686 32.664C36.1766 32.296 35.9366 32.024 35.6486 31.848H33.0566V36.216Z" fill="black" fill-opacity="0.2"/>
<path d="M22.0239 22.2H27.7839V25.08H23.1759L23.1039 25.224L26.9439 32.232C27.7279 33.64 28.1199 34.712 28.1199 35.448C28.1199 37.064 27.5839 38.248 26.5119 39H20.1519V36.216H25.1199L25.1919 36.072L20.8719 28.32C20.2479 27.2 19.9359 26.288 19.9359 25.584C19.9359 23.92 20.6319 22.792 22.0239 22.2ZM29.7926 39V22.2H36.6326C37.4166 22.488 38.1126 22.992 38.7206 23.712C39.3286 24.432 39.6326 25.304 39.6326 26.328C39.6326 28.136 39.0406 29.4 37.8566 30.12V30.216C39.3286 31.032 40.0646 32.312 40.0646 34.056C40.0646 36.056 39.0486 37.704 37.0166 39H29.7926ZM33.0566 29.136H35.4326C36.1366 28.704 36.4886 28.048 36.4886 27.168C36.4886 26.288 36.1606 25.592 35.5046 25.08H33.0566V29.136ZM33.0566 36.216H35.5286C35.8166 36.008 36.0726 35.68 36.2966 35.232C36.5366 34.784 36.6566 34.336 36.6566 33.888C36.6566 33.44 36.5606 33.032 36.3686 32.664C36.1766 32.296 35.9366 32.024 35.6486 31.848H33.0566V36.216Z" fill="black" fill-opacity="0.2"/>
<path d="M22.0239 22.2H27.7839V25.08H23.1759L23.1039 25.224L26.9439 32.232C27.7279 33.64 28.1199 34.712 28.1199 35.448C28.1199 37.064 27.5839 38.248 26.5119 39H20.1519V36.216H25.1199L25.1919 36.072L20.8719 28.32C20.2479 27.2 19.9359 26.288 19.9359 25.584C19.9359 23.92 20.6319 22.792 22.0239 22.2ZM29.7926 39V22.2H36.6326C37.4166 22.488 38.1126 22.992 38.7206 23.712C39.3286 24.432 39.6326 25.304 39.6326 26.328C39.6326 28.136 39.0406 29.4 37.8566 30.12V30.216C39.3286 31.032 40.0646 32.312 40.0646 34.056C40.0646 36.056 39.0486 37.704 37.0166 39H29.7926ZM33.0566 29.136H35.4326C36.1366 28.704 36.4886 28.048 36.4886 27.168C36.4886 26.288 36.1606 25.592 35.5046 25.08H33.0566V29.136ZM33.0566 36.216H35.5286C35.8166 36.008 36.0726 35.68 36.2966 35.232C36.5366 34.784 36.6566 34.336 36.6566 33.888C36.6566 33.44 36.5606 33.032 36.3686 32.664C36.1766 32.296 35.9366 32.024 35.6486 31.848H33.0566V36.216Z" fill="black" fill-opacity="0.2"/>
</svg>
