<svg width="140" height="40" viewBox="0 0 140 40" fill="none" xmlns="http://www.w3.org/2000/svg">
<g clip-path="url(#clip0_9721_494)">
<mask id="mask0_9721_494" style="mask-type:luminance" maskUnits="userSpaceOnUse" x="0" y="0" width="140" height="40">
<path d="M140 0H0V40H140V0Z" fill="white"/>
</mask>
<g mask="url(#mask0_9721_494)">
<path d="M40 20C40 8.9543 31.0457 0 20 0C8.9543 0 0 8.9543 0 20C0 31.0457 8.9543 40 20 40C31.0457 40 40 31.0457 40 20Z" fill="#055FFD"/>
<path d="M15.0179 14.4004H19.3379V16.5604H15.8819L15.8279 16.6684L18.7079 21.9244C19.2959 22.9804 19.5899 23.7844 19.5899 24.3364C19.5899 25.5484 19.1879 26.4364 18.3839 27.0004H13.6139V24.9124H17.3399L17.3939 24.8044L14.1539 18.9904C13.6859 18.1504 13.4519 17.4664 13.4519 16.9384C13.4519 15.6904 13.9739 14.8444 15.0179 14.4004ZM20.8444 27.0004V14.4004H25.9744C26.5624 14.6164 27.0844 14.9944 27.5404 15.5344C27.9964 16.0744 28.2244 16.7284 28.2244 17.4964C28.2244 18.8524 27.7804 19.8004 26.8924 20.3404V20.4124C27.9964 21.0244 28.5484 21.9844 28.5484 23.2924C28.5484 24.7924 27.7864 26.0284 26.2624 27.0004H20.8444ZM23.2924 19.6024H25.0744C25.6024 19.2784 25.8664 18.7864 25.8664 18.1264C25.8664 17.4664 25.6204 16.9444 25.1284 16.5604H23.2924V19.6024ZM23.2924 24.9124H25.1464C25.3624 24.7564 25.5544 24.5104 25.7224 24.1744C25.9024 23.8384 25.9924 23.5024 25.9924 23.1664C25.9924 22.8304 25.9204 22.5244 25.7764 22.2484C25.6324 21.9724 25.4524 21.7684 25.2364 21.6364H23.2924V24.9124Z" fill="white"/>
<path d="M60.1778 9.59961H67.8578V13.4396H61.7138L61.6178 13.6316L66.7378 22.9756C67.7831 24.8529 68.3058 26.2823 68.3058 27.2636C68.3058 29.4183 67.5911 30.9969 66.1618 31.9996H57.6818V28.2876H64.3058L64.4018 28.0956L58.6418 17.7596C57.8098 16.2663 57.3938 15.0503 57.3938 14.1116C57.3938 11.8929 58.3218 10.3889 60.1778 9.59961ZM70.536 31.9996V9.59961H82.024V13.4396H74.92V18.7836H81.256V22.4956H74.92V28.2876H82.152V31.9996H70.536ZM92.1892 31.9996H87.5173V24.5436L82.7812 9.59961H87.1333L89.1173 16.4156L89.7893 20.3516H89.9173L90.5893 16.4156L92.5733 9.59961H96.9253L92.1892 24.5436V31.9996ZM98.4735 31.9996V9.59961H102.858V31.9996H98.4735Z" fill="white"/>
</g>
</g>
<defs>
<clipPath id="clip0_9721_494">
<rect width="140" height="40" fill="white"/>
</clipPath>
</defs>
</svg>
