<svg width="140" height="40" viewBox="0 0 140 40" fill="none" xmlns="http://www.w3.org/2000/svg">
<mask id="mask0_897_2225" style="mask-type:luminance" maskUnits="userSpaceOnUse" x="0" y="0" width="140" height="40">
<path d="M140 0H0V40H140V0Z" fill="white"/>
</mask>
<g mask="url(#mask0_897_2225)">
<path d="M40 20C40 8.9543 31.0457 0 20 0C8.9543 0 0 8.9543 0 20C0 31.0457 8.9543 40 20 40C31.0457 40 40 31.0457 40 20Z" fill="#855ABB"/>
<path d="M15.018 14.4H19.338V16.56H15.882L15.828 16.668L18.708 21.924C19.296 22.98 19.59 23.784 19.59 24.336C19.59 25.548 19.188 26.436 18.384 27H13.614V24.912H17.34L17.394 24.804L14.154 18.99C13.686 18.15 13.452 17.466 13.452 16.938C13.452 15.69 13.974 14.844 15.018 14.4ZM20.8445 27V14.4H25.9745C26.5625 14.616 27.0845 14.994 27.5405 15.534C27.9965 16.074 28.2245 16.728 28.2245 17.496C28.2245 18.852 27.7805 19.8 26.8925 20.34V20.412C27.9965 21.024 28.5485 21.984 28.5485 23.292C28.5485 24.792 27.7865 26.028 26.2625 27H20.8445ZM23.2925 19.602H25.0745C25.6025 19.278 25.8665 18.786 25.8665 18.126C25.8665 17.466 25.6205 16.944 25.1285 16.56H23.2925V19.602ZM23.2925 24.912H25.1465C25.3625 24.756 25.5545 24.51 25.7225 24.174C25.9025 23.838 25.9925 23.502 25.9925 23.166C25.9925 22.83 25.9205 22.524 25.7765 22.248C25.6325 21.972 25.4525 21.768 25.2365 21.636H23.2925V24.912Z" fill="white"/>
<path d="M60.1778 9.6H67.8578V13.44H61.7138L61.6178 13.632L66.7378 22.976C67.7831 24.8533 68.3058 26.2827 68.3058 27.264C68.3058 29.4187 67.5911 30.9973 66.1618 32H57.6818V28.288H64.3058L64.4018 28.096L58.6418 17.76C57.8098 16.2667 57.3938 15.0507 57.3938 14.112C57.3938 11.8933 58.3218 10.3893 60.1778 9.6ZM70.536 32V9.6H82.024V13.44H74.92V18.784H81.256V22.496H74.92V28.288H82.152V32H70.536ZM92.1892 32H87.5173V24.544L82.7812 9.6H87.1333L89.1173 16.416L89.7893 20.352H89.9173L90.5893 16.416L92.5733 9.6H96.9253L92.1892 24.544V32ZM98.4735 32V9.6H102.858V32H98.4735Z" fill="white"/>
</g>
</svg>
