<svg width="73" height="73" viewBox="0 0 73 73" fill="none" xmlns="http://www.w3.org/2000/svg">
<path d="M45.0137 16.4319V10.3501H27.9865V16.4319H7.31152V62.6478H65.6887V16.4319H45.0137ZM30.4183 12.7842H42.5797V16.4319H30.4183V12.7842ZM27.9865 18.866H63.2569V38.3251H45.0137V33.4592H27.9865V38.3251H9.74334V18.866H27.9865ZM42.5819 35.891V43.1887H30.4206V35.891H42.5819ZM9.74334 60.2159V40.7569H27.9865V45.6228H45.0137V40.7569H63.2569V60.2159H9.74334Z" fill="white"/>
<path d="M33.7617 25.788L32.6638 30H31.4218L30.7498 27.228L30.0538 30H28.8118L27.7438 25.788H28.8418L29.4478 28.854L30.1978 25.788H31.3258L32.0458 28.854L32.6578 25.788H33.7617ZM35.8003 30.048C35.4723 30.048 35.1763 29.978 34.9123 29.838C34.6523 29.698 34.4463 29.498 34.2943 29.238C34.1463 28.978 34.0723 28.674 34.0723 28.326C34.0723 27.982 34.1483 27.68 34.3003 27.42C34.4523 27.156 34.6603 26.954 34.9243 26.814C35.1883 26.674 35.4843 26.604 35.8123 26.604C36.1403 26.604 36.4363 26.674 36.7003 26.814C36.9643 26.954 37.1723 27.156 37.3243 27.42C37.4763 27.68 37.5523 27.982 37.5523 28.326C37.5523 28.67 37.4743 28.974 37.3183 29.238C37.1663 29.498 36.9563 29.698 36.6883 29.838C36.4243 29.978 36.1283 30.048 35.8003 30.048ZM35.8003 29.16C35.9963 29.16 36.1623 29.088 36.2983 28.944C36.4383 28.8 36.5083 28.594 36.5083 28.326C36.5083 28.058 36.4403 27.852 36.3043 27.708C36.1723 27.564 36.0083 27.492 35.8123 27.492C35.6123 27.492 35.4463 27.564 35.3143 27.708C35.1823 27.848 35.1163 28.054 35.1163 28.326C35.1163 28.594 35.1803 28.8 35.3083 28.944C35.4403 29.088 35.6043 29.16 35.8003 29.16ZM39.1226 27.21C39.2426 27.026 39.3926 26.882 39.5726 26.778C39.7526 26.67 39.9526 26.616 40.1726 26.616V27.702H39.8906C39.6346 27.702 39.4426 27.758 39.3146 27.87C39.1866 27.978 39.1226 28.17 39.1226 28.446V30H38.0966V26.652H39.1226V27.21ZM42.709 30L41.689 28.596V30H40.663V25.56H41.689V28.014L42.703 26.652H43.969L42.577 28.332L43.981 30H42.709Z" fill="white"/>
</svg>
